<?xml version="1.0" encoding="iso-8859-1"?>
<!-- Generator: Adobe Illustrator 19.0.0, SVG Export Plug-In . SVG Version: 6.00 Build 0)  -->
<svg version="1.1" id="Capa_1" xmlns="http://www.w3.org/2000/svg" xmlns:xlink="http://www.w3.org/1999/xlink" x="0px" y="0px"
	 viewBox="0 0 512 512" style="enable-background:new 0 0 512 512;" xml:space="preserve">
<path style="fill:#DEF1FF;" d="M256,20.624v470.751C379.22,490.109,491.396,409.497,491.396,256S379.22,21.891,256,20.624z"/>
<path style="fill:#FFFFFF;" d="M256,30.926C356.453,32.482,439.887,132.656,439.887,256S356.453,479.518,256,481.074
	c-0.793,0.01,0.793,10.322,0,10.322C131.688,491.396,20.604,380.312,20.604,256S131.688,20.604,256,20.604
	C256.793,20.604,255.207,30.916,256,30.926z"/>
<path style="fill:#0789DE;" d="M256,0C114.615,0,0,114.615,0,256s114.615,256,256,256s256-114.615,256-256S397.385,0,256,0z
	 M480.557,240.547h-88.82c-1.129-36.823-6.283-72.194-15.046-104.105c16.534-8.855,31.985-19.469,46.096-31.6
	C455.783,141.227,477.023,188.457,480.557,240.547z M271.453,33.599c20.462,7.062,40.285,27.824,56.05,59.353
	c4.218,8.435,8.061,17.431,11.524,26.895c-21.149,8.423-43.86,13.736-67.574,15.352V33.599z M355.145,79.129
	c-6.467-12.935-13.592-24.427-21.305-34.396c24.429,9.004,46.86,22.128,66.463,38.522c-10.357,8.672-21.505,16.427-33.315,23.149
	C363.399,96.859,359.45,87.739,355.145,79.129z M145.012,106.402c-11.809-6.722-22.952-14.481-33.309-23.152
	c19.602-16.391,42.031-29.514,66.457-38.516c-7.713,9.97-14.838,21.462-21.305,34.397C152.55,87.739,148.602,96.857,145.012,106.402
	z M184.497,92.951c15.765-31.529,35.587-52.291,56.05-59.353v101.603c-23.713-1.615-46.427-6.924-67.577-15.347
	C176.435,110.388,180.279,101.389,184.497,92.951z M240.547,166.156v74.391H151.18c1.046-32.21,5.352-63.072,12.599-91.035
	C187.825,158.801,213.627,164.552,240.547,166.156z M240.547,271.453v74.391c-26.921,1.603-52.723,7.353-76.768,16.644
	c-7.246-27.963-11.553-58.826-12.599-91.035H240.547z M240.547,376.799v101.603c-20.462-7.062-40.285-27.824-56.05-59.353
	c-4.219-8.437-8.063-17.436-11.527-26.904C194.12,383.722,216.835,378.414,240.547,376.799z M156.855,432.871
	c6.467,12.935,13.592,24.427,21.305,34.396c-24.426-9.003-46.855-22.125-66.457-38.516c10.356-8.672,21.5-16.431,33.309-23.152
	C148.602,415.143,152.55,424.262,156.855,432.871z M366.989,405.596c11.81,6.722,22.958,14.477,33.315,23.149
	c-19.604,16.394-42.036,29.519-66.463,38.522c7.713-9.97,14.838-21.462,21.305-34.397
	C359.45,424.26,363.399,415.141,366.989,405.596z M327.503,419.049c-15.765,31.529-35.587,52.291-56.05,59.353v-101.6
	c23.713,1.615,46.424,6.929,67.574,15.352C335.563,401.618,331.72,410.614,327.503,419.049z M271.453,345.845v-74.392h89.367
	c-1.046,32.212-5.353,63.076-12.6,91.041C324.173,353.204,298.373,347.448,271.453,345.845z M271.453,240.547v-74.392
	c26.921-1.603,52.721-7.36,76.767-16.649c7.247,27.965,11.556,58.83,12.6,91.041H271.453z M89.215,104.838
	c14.111,12.13,29.561,22.743,46.094,31.599c-8.763,31.912-13.918,67.285-15.047,104.11H31.443
	C34.977,188.455,56.218,141.223,89.215,104.838z M31.443,271.453h88.819c1.129,36.825,6.284,72.198,15.047,104.11
	c-16.533,8.855-31.984,19.468-46.094,31.599C56.218,370.777,34.977,323.545,31.443,271.453z M422.788,407.157
	c-14.111-12.13-29.562-22.744-46.096-31.6c8.762-31.911,13.917-67.283,15.046-104.105h88.819
	C477.023,323.543,455.783,370.773,422.788,407.157z"/>
<g>
</g>
<g>
</g>
<g>
</g>
<g>
</g>
<g>
</g>
<g>
</g>
<g>
</g>
<g>
</g>
<g>
</g>
<g>
</g>
<g>
</g>
<g>
</g>
<g>
</g>
<g>
</g>
<g>
</g>
</svg>
