<?xml version="1.0" ?><svg id="Layer_1" style="enable-background:new 0 0 512 512;" version="1.1" viewBox="0 0 512 512" xml:space="preserve" xmlns="http://www.w3.org/2000/svg" xmlns:xlink="http://www.w3.org/1999/xlink"><style type="text/css">
	.st0{fill:#FFFFFF;}
	.st1{fill:#E63833;}
	.st2{fill:#42A047;}
</style><g><rect class="st0" height="298.7" width="512" y="106.7"/><rect class="st1" height="74.7" width="512" y="330.7"/><rect class="st1" height="74.7" width="512" y="106.7"/><path class="st2" d="M254,181.3l-2.4,4.1c-1.3,2.2-4.6,5.6-7.2,7.5c-2.6,1.9-5.8,4.6-7.1,6.2l-2.3,2.8l2.4-0.6   c1.3-0.3,3.1-0.9,3.9-1.3c0.8-0.3,1.5-0.2,1.5,0.4c0,0,0,0,0,0.1c0,0,0,0.1,0,0.1c-0.3,1.4-4.6,4.7-7.9,6.1   c-3.2,1.3-7.9,4.8-8.5,6.2c0,0,0,0.1,0,0.1c0,0,0,0,0,0.1c0,0,0,0,0,0.1c0,0,0,0,0,0v0c0,0,0,0,0,0c0,0,0,0,0,0c0,0,0,0,0,0.1   c0,0,0,0,0,0c0,0,0,0,0,0c0,0,0,0,0,0c0,0,0,0,0,0c0,0,0,0,0,0c0.4,0.3,1.4,0.3,2.6,0c2.1-0.5,2.9-0.2,3.6,1.2c1,2.2,0.4,3.1-2,3.1   c-2.9,0-7.1,2.9-7.7,5.4c-0.4,1.7-2,3-5.4,4.6c-5.6,2.6-12.8,7.5-13.3,9c0,0,0,0.1,0,0.1c0,2.1,4.7,2,11.6-0.4   c1.5-0.5,2.2,0,3.4,2.6c1.4,3.3,1.4,3.3-1.9,7.6c-2.3,3-4.4,4.5-6.6,5c-4.4,0.9-5.8,1.8-11.5,7.6c-2.7,2.7-5.5,5-6.1,5   c-0.2,0-0.4,0-0.5,0.1c0,0,0,0,0,0s0,0,0,0l0,0v0c0,0,0,0,0,0c0,0,0,0,0,0c0,0,0,0,0,0c0,0,0,0,0,0c0,0,0,0,0,0c0,0,0,0,0,0   c0,0,0,0,0,0.1c0,0,0,0,0,0c0,0,0,0,0,0c0.5,0.8,3.5,2.5,5.2,2.5c1.3,0,4.3-1.4,6.8-3.2c4.3-3.1,4.5-3.1,6.3-1.4   c1,1,1.8,2.9,1.8,4.3c0,2-1.1,3-6.8,5.9c-4.2,2.1-9.1,5.8-13,9.7c-5.2,5.2-6.6,6.1-8.8,5.8c-1.4-0.2-2.2-0.3-2.4-0.2c0,0,0,0,0,0   c0,0,0,0,0,0c0,0,0,0,0,0c0,0,0,0.1,0,0.1c0,0.3,0.5,0.8,1.3,1.7c0.8,0.9,2.6,1.6,4.1,1.6c4,0,16.5-4.7,20.4-7.6   c3.6-2.7,7.1-3.2,10-1.5c4.5,2.6-3,7.9-17.1,12.1c-5.2,1.5-9.7,3-10.2,3.4c0,0,0,0,0,0l0,0c0,0,0,0,0,0c0,0,0,0,0,0   c-0.2,0.3,0.1,1.2,0.7,2c1.5,1.9,8.9,2,15.2,0.2c2.5-0.8,8.8-3.3,14-5.6c9.4-4.3,9.4-4.2,12.7-2.5c7.6,4,6.9,10.9-2.2,22.4   c-4,5-7.5,7.2-13.9,8.8c-2.4,0.6-7.3,5.2-7.3,6.8c0,0.2,0,0.3,0.1,0.4h1.6c0.4-0.3,0.7-0.6,1.1-1.1c2-2.7,6.1-4.5,10.2-4.5   c4.5,0,10-2.5,14.1-6.3c3.6-3.4,7.3-4.4,10-2.8c1.5,0.9,2.9,1,4.7,0.3c3.3-1.2,4.9-0.6,4.9,1.8c0,1.1,1.2,2.6,2.7,3.5   c1.5,0.9,4.2,3,6,4.7c1.3,1.3,2.3,1.9,2.8,1.9c0,0,0.1,0,0.1,0c0,0,0,0,0,0c0,0,0,0,0.1,0c0,0,0,0,0,0c0,0,0.1,0,0.1,0c0,0,0,0,0,0   c0,0,0,0,0,0c0,0,0,0,0,0c0,0,0,0,0,0c0,0,0,0,0,0c0,0,0,0,0,0c0,0,0,0,0,0c0,0,0,0,0-0.1c0,0,0-0.1,0-0.1c0-0.6-0.4-1.7-1.4-3.4   c-0.6-1-0.9-1.9-0.8-2.4c0,0,0-0.1,0-0.1c0,0,0,0,0,0c0,0,0,0,0,0c0,0,0,0,0,0c0,0,0,0,0-0.1c0,0,0,0,0,0c0,0,0,0,0,0l0,0   c0,0,0,0,0,0c0.6-0.2,3.6-0.1,6.9,0.3c5.8,0.7,6.5,1,10,5c1.7,2,3.1,3.2,4.2,3.7h2.3c0.5-0.2,0.9-0.5,0.9-0.9c0,0,0,0,0,0   c0,0,0,0,0-0.1c0,0,0,0,0,0c0,0,0,0,0,0v0c0,0,0,0,0,0c-0.2-0.7-3.7-4-7.8-7.4c-9.4-7.9-10.9-10.7-10.9-21.6c0-6.5,0.3-8.2,1.8-9.9   c2.4-2.6,3.7-2.6,9.5,0.5c4.4,2.3,5.8,2.5,15.8,2.3c10.7-0.2,11.1-0.2,16.5,3c3,1.8,6.7,4.2,8.2,5.3c3.3,2.5,6.7,2.7,7.5,0.4   c0.9-2.7-5.4-8-17.3-14.4c-11.9-6.3-13.1-8.1-7.7-11c3.1-1.6,3.3-1.6,8.3,1.1c4,2.2,5.8,2.7,8.3,2.2l3.2-0.7l-7.1-5.8   c-3.9-3.2-7.7-6.6-8.4-7.6c-2.1-2.8-6.1-4.7-10.1-4.7c-1.9,0-3.6-0.4-4.1-0.8c0,0,0,0,0-0.1c0,0,0,0,0,0c0,0,0,0,0,0   c-1.1-2,2.2-2.9,11.6-3.3c12.6-0.5,14.4-2,5.6-4.8c-3.5-1.1-8.7-2.5-11.6-3.2c-3.5-0.8-5.5-1.6-6-2.5c-0.1-0.1-0.1-0.2-0.1-0.3   c0-0.1,0-0.2,0-0.3c0-0.3,0.2-0.7,0.6-1c0.6-0.7,3.4-0.6,8.2,0.2c5.4,0.9,8.4,1.1,8.9,0.5c0.6-0.7-1.9-2.5-7.4-5.6   c-5-2.8-11.3-7.3-14.2-10.1c-2.8-2.8-7.1-6-9.4-7.1c-3.1-1.4-4-2.4-3.7-3.6c0.7-2,5.5-2,8.6,0c1.3,0.8,4.6,1.4,7.3,1.4l5,0   l-3.3-1.4c-3.3-1.4-12.4-7.8-13.1-9.3c0,0,0-0.1,0-0.1c0,0,0,0,0,0v0c0,0,0,0,0,0c0,0,0,0,0,0c0,0,0,0,0,0l0,0   c0.4-0.3,2.5-0.4,5-0.3l5,0.3l-7.3-5.6c-5.3-4.1-8.6-5.9-12.4-6.7c-2.8-0.6-6-1.3-7.2-1.6c-3-0.7-8.1-6-10.1-10.6L254,181.3z    M237.4,209.7c0.1,0,0.2,0,0.4,0c0.9,0,1.6,0.2,1.9,0.6c0,0,0,0,0,0c0,0,0,0,0,0c0,0.1,0.1,0.1,0.1,0.2c0,0,0,0,0,0.1   c0,0,0,0.1,0,0.1c0,0,0,0,0,0.1c0,0,0,0.1,0,0.1c0,0,0,0,0,0.1c-0.2,0.6-1.3,1.8-2.4,2.6c-0.8,0.6-1.3,1-1.6,0.9c0,0,0,0-0.1,0   c0,0,0,0,0,0c0,0,0,0,0-0.1c-0.2-0.2-0.2-0.9-0.2-2C235.4,210.3,235.7,209.7,237.4,209.7 M261.9,212.2   C261.9,212.2,262,212.2,261.9,212.2c1.5,0,2.5,0.7,2.6,1.8c0.2,1.4-0.3,1.8-2.6,1.8c-1.3,0-2-0.1-2.4-0.5c-0.3-0.3-0.3-0.7-0.2-1.3   C259.6,212.9,260.5,212.2,261.9,212.2 M254.7,212.8c1.2-0.1,1.7,0.6,1.7,2.2c0,1.9-0.7,2.5-4.1,3.4c-2.2,0.6-4.1,0.8-4.6,0.6   c0,0,0,0,0,0l0,0c-1.2-1.3-0.1-3,2.8-4.5C252.4,213.4,253.8,212.9,254.7,212.8 M271.3,212.8c1.8-0.1,2.1,0.8,1.2,3.4   c-0.3,0.9-1.6,1.6-2.8,1.6c-1.8,0-2.2-0.4-2-2.3c0.2-1.6,1-2.4,2.8-2.6C270.8,212.8,271,212.8,271.3,212.8 M243.4,217.8   c0.1,0,0.1,0,0.2,0c2.2,0,0.8,4.2-2,6.1c-2.5,1.7-5.2,2.4-6,1.8c0,0,0,0,0,0c0,0-0.1-0.1-0.1-0.2c0,0,0,0,0,0c0,0,0,0,0-0.1   c0,0,0,0,0,0c0,0,0,0,0-0.1c0,0,0-0.1,0-0.1v0C235.4,222.8,240.8,218,243.4,217.8 M264.2,227.4c1-0.1,1.7,1,1.3,3.1   c-0.2,1.2-1.3,2-2.8,2.2c-1.2,0.2-2,0.1-2.2-0.2c0,0,0,0,0,0c0,0,0,0,0-0.1c0,0,0,0,0,0c0,0,0,0,0,0c0,0,0-0.1,0-0.1   c-0.1-0.6,0.4-1.6,1.7-3.3C262.8,228,263.5,227.5,264.2,227.4 M255.9,227.9c0.1,0,0.1,0,0.1,0c2.1,0,2.5,1.9,0.5,3   c-0.9,0.5-1.7,0.9-2,0.9c0,0,0,0,0,0l0,0c-0.2-0.1-1.3-0.4-2.6-0.9l-2.3-0.8l2.6-1.2C253.5,228.4,255.1,227.9,255.9,227.9    M273.7,230.2c1-0.1,2.1,0.1,3.1,0.6c1.9,0.8,2.3,1.5,1.9,3.6c-0.5,2.8-2.1,3.2-7.4,1.5c-2.6-0.8-2.9-1.2-2-3   C270.1,231.3,271.8,230.3,273.7,230.2 M234.3,230.9c0.1,0,0.1,0,0.2,0c3.9,0,4.4,0.7,2.5,3.1c-0.6,0.8-1.8,2.1-2.7,2.8   c-1.3,1.1-1.7,1-2.5-0.7c-1-2-1.3-3.4-0.8-4.2C231.4,231.2,232.5,230.9,234.3,230.9 M224.1,232.6c1.6,0,2.7,0.7,4,3l1.9,3.2   l-2.8,1.1c-2.5,1-3,0.8-5-2.2c-1.3-1.9-1.8-3.1-1.5-3.9c0-0.1,0.1-0.2,0.1-0.2c0,0,0,0,0.1-0.1c0,0,0,0,0-0.1   c0.5-0.5,1.4-0.7,2.9-0.9C223.9,232.6,224,232.6,224.1,232.6 M285,242.2c1.8-0.2,3.7,1.1,3.4,3.2c-0.3,2.6-3.2,3.4-5.6,1.5   c-1.4-1.1-1.5-1.6-0.4-3.2C283.1,242.7,284,242.2,285,242.2 M250.4,247.1c0.1,0,0.1,0,0.2,0c0.2,0,0.3,0,0.4,0.1   c0.1,0,0.2,0.1,0.2,0.1c0,0,0,0,0.1,0.1c0,0,0,0,0,0c0,0,0,0,0,0c0,0,0,0,0,0c0.3,0.4,0.4,1,0.3,1.8c-0.4,2.7-2.2,3.5-2.9,1.3   C248.1,248.6,248.8,247.2,250.4,247.1 M238.9,249.2c0.8-0.1,2.1,0.4,3.3,1.5c0.9,0.7,1.2,1.4,1.2,1.9c0,0,0,0.1,0,0.2   c0,0,0,0.1,0,0.1c0,0,0,0.1,0,0.1c0,0,0,0.1-0.1,0.1c0,0,0,0,0,0c0,0,0,0,0,0c0,0-0.1,0.1-0.1,0.1c0,0,0,0,0,0   c-0.5,0.4-1.7,0.3-2.9-0.7c-1.1-0.8-1.9-1.9-2-2.4c0,0,0,0,0,0v0C238.1,249.6,238.4,249.3,238.9,249.2 M257.2,249.6   c0.4,0,0.7,0.3,1.4,1c0.8,0.9,1.7,2.5,2,3.7c0.8,2.8-0.5,4-3,2.7c-2.7-1.4-3.3-3.5-1.8-6C256.5,250.1,256.9,249.6,257.2,249.6    M263.7,253.4c0.7-0.1,1.6,0.9,1.8,2.6c0.1,1,0,1.9-0.3,2.1c0,0,0,0,0,0c0,0,0,0,0,0c0,0,0,0,0,0s0,0,0,0h0h0h0h0   c-1.3,0-2.1-1.2-2.1-3.3C262.9,254,263.2,253.5,263.7,253.4 M223.4,257.4c1.3,0,2.5,0.1,3.3,0.2c1.3,0.3,2.1,0.6,2.5,1.1   c0.1,0.1,0.2,0.2,0.2,0.3c0,0.1,0,0.1,0,0.2c0,0.1,0,0.2,0,0.3c-0.2,0.8-1.3,1.8-3.4,2.9c-1.7,0.9-4.7,2-6.6,2.3   c-3.1,0.6-3.5,0.4-4.8-2.4c-0.8-1.6-1.4-3.2-1.4-3.5c0,0,0,0,0,0c0,0,0,0,0,0c0,0,0,0,0,0c0,0,0,0,0,0c0,0,0,0,0,0   C214,258.1,219.4,257.5,223.4,257.4 M285.8,266.5c3.6-0.2,5.6,2.3,1.6,5.3c-2.5,2-6.3,2-8.5,0.2c-1.7-1.3-1.6-1.5,1.4-3.6   C282.3,267.2,284.2,266.6,285.8,266.5 M299,269.4c0.1,0,0.1,0,0.2,0c0.5,0,1.8,0.6,2.7,1.4c1.8,1.4,1.7,1.5-0.4,4.1   c-1.1,1.3-2.3,2.4-2.7,2.4c0,0,0,0,0,0h0h0c0,0,0,0,0,0c-0.3-0.1-1.9-0.3-3.5-0.6c-1.8-0.3-3-1-3-1.9c0,0,0-0.1,0-0.1   C292.6,273.2,297.1,269.6,299,269.4 M232.8,273.4c0.2,0,0.4,0,0.6,0c2.5,0,3.9,2,3.9,5.8c0,5-3.1,4.6-4.5-0.6   C231.5,274.1,231.4,273.5,232.8,273.4 M251.7,274.9c1.5,0,5.1,0.8,5.6,1.4c0,0,0,0,0,0c0,0,0,0,0,0c0,0,0,0,0,0l0,0v0c0,0,0,0,0,0   c0,0,0,0,0,0c0,0.4-1,2-2.2,3.5l-2.2,2.9l-1.1-3.7c-0.6-1.9-0.9-3.5-0.8-4c0,0,0,0,0,0c0,0,0,0,0,0v0c0,0,0,0,0,0c0,0,0,0,0,0   c0,0,0,0,0,0c0,0,0,0,0,0l0,0c0,0,0,0,0,0C251.3,274.9,251.5,274.9,251.7,274.9 M242.5,276.5c0.3,0,0.7,0,1.3,0.1   c1.2,0.2,2.3,1.2,2.5,2.2c0.2,1.3,0.1,2.2-0.2,2.6c0,0-0.1,0.1-0.1,0.1c0,0-0.1,0.1-0.1,0.1c0,0,0,0,0,0c-0.1,0-0.1,0.1-0.2,0.1   c0,0-0.1,0-0.1,0c-0.1,0-0.1,0-0.2,0c-0.6-0.1-1.4-0.8-2.1-2.3c-0.8-1.7-1.2-2.5-1-2.8c0,0,0-0.1,0.1-0.1   C242.3,276.6,242.4,276.5,242.5,276.5"/></g></svg>