<?xml version="1.0" encoding="UTF-8"?>
<svg xmlns="http://www.w3.org/2000/svg" id="Layer_1" data-name="Layer 1" viewBox="0 0 594.56 193.24">
  <path d="M17.76,170V149.3l15.11-3.23V47.26L17.76,44V23.29H68.83l58.83,93.88h.6V47.26L109,44V23.29H174.8V44l-15.21,3.22V170H124.73L64.8,78.08h-.6v68l19.34,3.23V170Z" style="fill:#404040"></path>
  <path d="M180.14,170V149.3l15.21-3.23V47.26L180.14,44V23.29h69.1V44L230.7,47.26v95.59h34.85l.81-20.45h27V170Z" style="fill:#404040"></path>
  <path d="M316.42,170V149.3l15.31-3.23V50.69H309.07l-.91,15.81H281.47V23.29H417.75V66.5h-27L390,50.69H367.09v95.38l15.31,3.23V170Z" style="fill:#404040"></path>
  <path d="M423,170V149.3l15.21-3.23V47.26L423,44V23.29h64.47V44l-13.9,3.22v98.81l13.9,3.23V170ZM464.39,138l-18-20.65,73.13-72,.1-.2L503,44V23.29h68.49V44L557.67,47ZM506.09,170V149.3l14.71-1.11h.2L485.74,99.94l24.68-21.86,51.37,68.7,15,2.52V170Z" style="fill:#404040"></path>
</svg>
